<?xml version="1.0" encoding="UTF-8"?>
<!DOCTYPE svg PUBLIC "-//W3C//DTD SVG 1.1//EN" "http://www.w3.org/Graphics/SVG/1.1/DTD/svg11.dtd">
<!-- Creator: CorelDRAW X7 -->
<svg xmlns="http://www.w3.org/2000/svg" xml:space="preserve" width="215.9mm" height="279.4mm" version="1.1" style="shape-rendering:geometricPrecision; text-rendering:geometricPrecision; image-rendering:optimizeQuality; fill-rule:evenodd; clip-rule:evenodd"
viewBox="0 0 21590 27940"
 xmlns:xlink="http://www.w3.org/1999/xlink">
 <defs>
  <style type="text/css">
   <![CDATA[
    .fil0 {fill:#ED3237}
   ]]>
  </style>
 </defs>
 <g id="Capa_x0020_1">
  <metadata id="CorelCorpID_0Corel-Layer"/>
  <g id="_598645792">
   <g>
    <path class="fil0" d="M10549 14185c-88,0 -159,71 -159,159 0,88 71,159 159,159 88,0 159,-71 159,-159 0,-88 -71,-159 -159,-159zm0 238c-44,0 -79,-35 -79,-79 0,-44 35,-79 79,-79 44,0 79,35 79,79 0,44 -35,79 -79,79zm1196 -355l0 169c0,43 -34,77 -76,77l-82 0c-15,-102 -103,-180 -208,-180 -105,0 -193,78 -208,180l-414 0c-15,-102 -103,-180 -208,-180 -105,0 -193,78 -207,180l-103 0c-42,0 -76,-34 -76,-77l0 -169 1582 0 0 0zm-366 117c-88,0 -159,71 -159,159 0,88 71,159 159,159 88,0 159,-71 159,-159 0,-88 -71,-159 -159,-159zm0 238c-44,0 -79,-35 -79,-79 0,-44 35,-79 79,-79 44,0 79,35 79,79 0,44 -35,79 -79,79zm336 -526l-301 -297c-19,-19 -45,-29 -71,-29l-152 0 0 -57c0,-43 -34,-77 -77,-77l-875 0c-42,0 -76,34 -76,77l0 12 -311 36 550 71 -557 55 555 79 -555 49 318 59 0 151 1582 0 0 -56c0,-27 -11,-53 -30,-73zm-131 10l-291 0c-7,0 -12,-5 -12,-12l0 -224c0,-7 5,-12 12,-12l55 0c3,0 6,1 9,3l235 225c8,7 3,20 -8,20z"/>
   </g>
  </g>
  <g id="_598678080">
  </g>
  <g id="_598635296">
  </g>
  <g id="_598633952">
  </g>
  <g id="_598630112">
  </g>
  <g id="_598654592">
  </g>
  <g id="_598657984">
  </g>
  <g id="_598656704">
  </g>
  <g id="_598651872">
  </g>
  <g id="_598636768">
  </g>
  <g id="_598660608">
  </g>
  <g id="_598637888">
  </g>
  <g id="_598661280">
  </g>
  <g id="_598631200">
  </g>
  <g id="_598634880">
  </g>
  <g id="_598630304">
  </g>
 </g>
</svg>
