<?xml version="1.0" encoding="UTF-8"?>
<!DOCTYPE svg PUBLIC "-//W3C//DTD SVG 1.1//EN" "http://www.w3.org/Graphics/SVG/1.1/DTD/svg11.dtd">
<!-- Creator: CorelDRAW X7 -->
<svg xmlns="http://www.w3.org/2000/svg" xml:space="preserve" width="215.9mm" height="279.4mm" version="1.1" style="shape-rendering:geometricPrecision; text-rendering:geometricPrecision; image-rendering:optimizeQuality; fill-rule:evenodd; clip-rule:evenodd"
viewBox="0 0 21590 27940"
 xmlns:xlink="http://www.w3.org/1999/xlink">
 <defs>
  <style type="text/css">
   <![CDATA[
    .fil0 {fill:#ED3237}
   ]]>
  </style>
 </defs>
 <g id="Capa_x0020_1">
  <metadata id="CorelCorpID_0Corel-Layer"/>
  <path class="fil0" d="M11540 14253c-30,-2 -94,34 -111,43 -63,32 -149,83 -205,124 -4,2 -10,6 -14,9 -25,17 -52,28 -82,35 -164,36 -405,40 -405,40l-14 1c-10,0 -20,-7 -21,-18 -2,-11 6,-22 18,-23l357 -36c40,-4 71,-42 67,-85 -5,-43 -43,-75 -82,-70l-318 -4c-21,0 -56,-6 -77,-12 -204,-62 -319,-4 -381,23 -14,-23 -40,-39 -69,-37l-137 10c-45,3 -80,43 -76,88l22 315c3,46 42,80 88,77l137 -9c28,-2 52,-21 62,-46l602 27c67,7 130,-1 188,-33l18 -10 454 -276c23,-13 39,-37 39,-63 1,-31 -16,-66 -60,-70zm-1390 405c-26,0 -47,-20 -47,-46 0,-26 21,-47 47,-47 26,0 46,21 46,47 0,25 -20,46 -46,46z"/>
  <path class="fil0" d="M11195 14303c4,11 6,21 7,33 1,8 1,17 0,26 5,-3 10,-7 15,-10 46,-34 141,-88 195,-116 16,-8 33,-17 51,-23 -23,-17 -48,-17 -74,-7 -51,21 -145,68 -193,95 0,1 0,2 -1,2z"/>
  <path class="fil0" d="M11266 14169c-31,13 -102,37 -133,54 13,8 25,19 35,32 2,-2 4,-3 7,-5l23 -13c33,-19 105,-45 142,-62 -24,-16 -49,-17 -74,-6z"/>
  <path class="fil0" d="M10477 13668c5,6 5,11 0,18 -20,30 -40,60 -59,91 -18,30 -7,64 26,77 34,13 68,26 102,39 7,2 9,6 10,13 1,35 5,69 5,103 -1,35 30,66 72,53 33,-11 67,-18 100,-28 7,-2 11,-1 15,5 22,28 45,56 68,83 25,30 60,30 85,0 22,-28 44,-55 66,-83 5,-6 8,-8 15,-6 35,10 70,19 105,28 35,10 66,-12 68,-48 2,-36 4,-72 5,-108 0,-8 4,-12 11,-14 33,-13 66,-26 98,-38 36,-14 47,-49 26,-80 -19,-30 -38,-60 -58,-90 -5,-6 -4,-11 0,-17 19,-30 38,-59 57,-88 22,-34 10,-69 -28,-83 -33,-12 -65,-25 -98,-36 -7,-3 -9,-7 -9,-14 -2,-36 -4,-71 -6,-107 -2,-37 -32,-59 -68,-49 -35,9 -69,18 -103,28 -8,2 -12,0 -17,-6 -22,-27 -44,-55 -66,-82 -24,-30 -61,-30 -85,0 -22,27 -44,54 -65,82 -6,7 -12,9 -20,6 -34,-9 -67,-18 -91,-25 -47,-11 -75,8 -77,47 -3,36 -4,71 -6,107 0,8 -3,11 -9,14 -34,12 -68,25 -101,39 -35,13 -46,48 -25,79 18,30 37,60 57,90zm253 152c3,-12 7,-24 10,-36 5,-14 8,-16 21,-9 21,11 45,17 68,20 16,2 31,1 45,-6 27,-11 31,-42 9,-61 -8,-6 -17,-11 -26,-15 -23,-10 -48,-18 -70,-31 -36,-21 -59,-51 -56,-95 3,-49 31,-80 76,-97 19,-7 19,-6 19,-26 0,-6 0,-13 0,-20 1,-14 3,-17 18,-17 4,0 9,0 13,0 31,0 31,0 32,31 0,22 0,22 22,26 17,2 33,7 49,14 8,4 11,10 9,19 -4,14 -8,27 -12,40 -4,13 -8,15 -20,9 -25,-12 -50,-17 -77,-15 -7,0 -14,1 -21,4 -23,10 -27,36 -7,52 10,8 21,14 33,19 21,8 42,16 61,27 63,34 79,113 36,166 -16,19 -37,33 -61,39 -11,3 -15,8 -15,19 0,11 0,22 0,32 0,10 -5,15 -14,15 -12,1 -23,1 -35,0 -10,0 -15,-6 -15,-16 0,-7 0,-15 0,-23 0,-17 -1,-18 -17,-21 -22,-3 -43,-8 -62,-17 -16,-8 -17,-12 -13,-27z"/>
  <g id="_798902704">
  </g>
  <g id="_798901520">
  </g>
  <g id="_798907824">
  </g>
  <g id="_798901872">
  </g>
  <g id="_798907536">
  </g>
  <g id="_798901840">
  </g>
  <g id="_798907696">
  </g>
  <g id="_798906608">
  </g>
  <g id="_798905328">
  </g>
  <g id="_798905904">
  </g>
  <g id="_798907568">
  </g>
  <g id="_798905040">
  </g>
  <g id="_798902544">
  </g>
  <g id="_798901488">
  </g>
  <g id="_798903440">
  </g>
 </g>
</svg>
