<?xml version="1.0" encoding="UTF-8"?>
<!DOCTYPE svg PUBLIC "-//W3C//DTD SVG 1.1//EN" "http://www.w3.org/Graphics/SVG/1.1/DTD/svg11.dtd">
<!-- Creator: CorelDRAW 2021.5 -->
<svg xmlns="http://www.w3.org/2000/svg" xml:space="preserve" width="5.9266mm" height="5.9266mm" version="1.1" style="shape-rendering:geometricPrecision; text-rendering:geometricPrecision; image-rendering:optimizeQuality; fill-rule:evenodd; clip-rule:evenodd"
viewBox="0 0 592.66 592.66"
 xmlns:xlink="http://www.w3.org/1999/xlink"
 xmlns:xodm="http://www.corel.com/coreldraw/odm/2003">
 <defs>
  <style type="text/css">
   <![CDATA[
    .fil0 {fill:#ED323A;fill-rule:nonzero}
    .fil1 {fill:white;fill-rule:nonzero}
   ]]>
  </style>
 </defs>
 <g id="Capa_x0020_1">
  <metadata id="CorelCorpID_0Corel-Layer"/>
  <path class="fil0" d="M296.33 8.46c158.99,0 287.87,128.9 287.87,287.87 0,158.99 -128.88,287.86 -287.87,287.86 -158.99,0 -287.87,-128.87 -287.87,-287.86 0,-158.97 128.88,-287.87 287.87,-287.87z"/>
  <path class="fil1" d="M331.38 206.64l37.1 0 0 -54.8 -43.61 0 0 0.2c-52.84,1.87 -63.67,31.57 -64.63,62.77l-0.11 0 0 27.37 -35.98 0 0 53.66 35.98 0 0 143.86 54.23 0 0 -143.86 44.42 0 8.58 -53.66 -52.98 0 0 -16.54c0,-10.54 7.01,-19 17,-19z"/>
  <g id="_1793332896064">
  </g>
  <g id="_1793332895344">
  </g>
  <g id="_1793332895968">
  </g>
  <g id="_1793332897360">
  </g>
  <g id="_1793332894480">
  </g>
  <g id="_1793332895680">
  </g>
  <g id="_1793332897216">
  </g>
  <g id="_1793332894384">
  </g>
  <g id="_1793332891744">
  </g>
  <g id="_1793332891600">
  </g>
  <g id="_1793332891552">
  </g>
  <g id="_1793332892032">
  </g>
  <g id="_1793332893712">
  </g>
  <g id="_1793332892128">
  </g>
  <g id="_1793332892224">
  </g>
 </g>
</svg>
