<?xml version="1.0" encoding="UTF-8"?>
<!DOCTYPE svg PUBLIC "-//W3C//DTD SVG 1.1//EN" "http://www.w3.org/Graphics/SVG/1.1/DTD/svg11.dtd">
<!-- Creator: CorelDRAW 2021.5 -->
<svg xmlns="http://www.w3.org/2000/svg" xml:space="preserve" width="5.9266mm" height="5.9266mm" version="1.1" style="shape-rendering:geometricPrecision; text-rendering:geometricPrecision; image-rendering:optimizeQuality; fill-rule:evenodd; clip-rule:evenodd"
viewBox="0 0 592.66 592.66"
 xmlns:xlink="http://www.w3.org/1999/xlink"
 xmlns:xodm="http://www.corel.com/coreldraw/odm/2003">
 <defs>
  <style type="text/css">
   <![CDATA[
    .fil0 {fill:#EE3C3E;fill-rule:nonzero}
   ]]>
  </style>
 </defs>
 <g id="Capa_x0020_1">
  <metadata id="CorelCorpID_0Corel-Layer"/>
  <g id="XMLID_13_">
   <path id="XMLID_17_" class="fil0" d="M412.68 8.46l-232.7 0c-94.57,0 -171.52,76.95 -171.52,171.52l0 232.7c0,94.57 76.95,171.51 171.52,171.51l232.7 0.01c94.57,0 171.52,-76.95 171.52,-171.52l0 -232.7c-0.01,-94.57 -76.95,-171.52 -171.52,-171.52zm113.6 404.22c0,62.74 -50.86,113.6 -113.6,113.6l-232.7 0c-62.74,0 -113.6,-50.86 -113.6,-113.6l0 -232.7c0,-62.74 50.86,-113.6 113.6,-113.6l232.7 0c62.74,0 113.6,50.86 113.6,113.6l0 232.7 0 0z"/>
   <path id="XMLID_81_" class="fil0" d="M296.33 147.43c-82.11,0 -148.9,66.79 -148.9,148.9 0,82.1 66.79,148.9 148.9,148.9 82.11,0 148.9,-66.79 148.9,-148.9 0,-82.11 -66.79,-148.9 -148.9,-148.9zm0 239.89c-50.25,0 -90.99,-40.74 -90.99,-90.99 0,-50.25 40.74,-90.99 90.99,-90.99 50.25,0 90.99,40.74 90.99,90.99 0,50.25 -40.74,90.99 -90.99,90.99z"/>
   <circle id="XMLID_83_" class="fil0" cx="445.52" cy="148.55" r="35.68"/>
  </g>
  <g id="_1793340099616">
  </g>
  <g id="_1793340100768">
  </g>
  <g id="_1793340099712">
  </g>
  <g id="_1793340097360">
  </g>
  <g id="_1793340097648">
  </g>
  <g id="_1793340098128">
  </g>
  <g id="_1793340096496">
  </g>
  <g id="_1793340094192">
  </g>
  <g id="_1793340093952">
  </g>
  <g id="_1793340093520">
  </g>
  <g id="_1793340093712">
  </g>
  <g id="_1793340095392">
  </g>
  <g id="_1793340091552">
  </g>
  <g id="_1793340090832">
  </g>
  <g id="_1793340091648">
  </g>
 </g>
</svg>
