<?xml version="1.0" encoding="UTF-8"?>
<!DOCTYPE svg PUBLIC "-//W3C//DTD SVG 1.1//EN" "http://www.w3.org/Graphics/SVG/1.1/DTD/svg11.dtd">
<!-- Creator: CorelDRAW 2021.5 -->
<svg xmlns="http://www.w3.org/2000/svg" xml:space="preserve" width="50.7998mm" height="50.7998mm" version="1.1" style="shape-rendering:geometricPrecision; text-rendering:geometricPrecision; image-rendering:optimizeQuality; fill-rule:evenodd; clip-rule:evenodd"
viewBox="0 0 5079.98 5079.98"
 xmlns:xlink="http://www.w3.org/1999/xlink"
 xmlns:xodm="http://www.corel.com/coreldraw/odm/2003">
 <defs>
  <style type="text/css">
   <![CDATA[
    .fil0 {fill:none}
    .fil2 {fill:#08A1DF;fill-rule:nonzero}
    .fil1 {fill:#0A1B70;fill-rule:nonzero}
   ]]>
  </style>
 </defs>
 <g id="_23Layer_x0020_1">
  <metadata id="CorelCorpID_0Corel-Layer"/>
  <rect class="fil0" x="-0.01" y="-0" width="5079.99" height="5079.99"/>
  <rect class="fil0" x="1269.99" y="1270" width="2539.99" height="2539.99"/>
  <g id="_1928115137296">
   <g>
    <polygon class="fil1" points="215.62,3538.67 410.52,3538.67 410.52,4265.85 740.77,4265.85 740.77,4451.72 215.62,4451.72 "/>
    <path class="fil1" d="M1350.31 4343.72c-60.19,78.3 -159.2,123.64 -256.62,123.64 -187.7,0 -337.58,-128.9 -337.58,-328.61 0,-199.7 149.88,-329.21 337.58,-329.21 175.09,0 284.99,129.51 284.99,329.21l0 59.98 -434.87 0c14.85,73.84 68.95,121.43 141.32,121.43 61.21,0 102.51,-31.94 133.82,-76.27l131.36 99.83zm-159.2 -276.54l0 0c1.61,-64.49 -47.4,-118.56 -114.81,-118.56 -82.66,0 -127.81,58.36 -132.49,118.56l247.3 0z"/>
    <path class="fil1" d="M2068.36 4451.72l-172.44 0 0 -82.76 -2.98 0c-28.36,45.13 -100.73,98.4 -185.95,98.4 -180.59,0 -299.13,-134.01 -299.13,-323.74 0,-174.27 105.13,-334.08 277.38,-334.08 77.68,0 150.48,21.96 192.77,82.35l2.86 0 0 -353.22 187.49 0 0 913.05zm-322.73 -471.79l0 0c-93.95,0 -149.88,64.08 -149.88,158.82 0,93.54 55.93,158.22 149.88,158.22 93.75,0 150.29,-64.68 150.29,-158.22 0,-94.74 -56.54,-158.82 -150.29,-158.82z"/>
    <path class="fil1" d="M2693.87 4343.72c-60,78.3 -158.82,123.64 -256.43,123.64 -187.8,0 -337.98,-128.9 -337.98,-328.61 0,-199.7 150.18,-329.21 337.98,-329.21 174.88,0 285.21,129.51 285.21,329.21l0 59.98 -435.49 0c15.15,73.84 69.14,121.43 141.32,121.43 61.42,0 102.5,-31.94 134.03,-76.27l131.36 99.83zm-158.82 -276.54l0 0c1.02,-64.49 -47.58,-118.56 -114.78,-118.56 -83.09,0 -127.83,58.36 -133.11,118.56l247.89 0z"/>
    <path class="fil1" d="M3118.37 4009.2c-27.76,-34.55 -64.57,-52.67 -109.31,-52.67 -31.1,0 -68.82,13.86 -68.82,51.46 0,92.72 316.39,14.25 316.39,252.79 0,160.22 -150.15,206.58 -279.9,206.58 -85.41,0 -179.36,-21.94 -239.36,-85.19l114.07 -130.35c35.22,44.31 76.39,68.34 132.62,68.34 42.61,0 85.19,-11.4 85.19,-44.76 0,-101.06 -316.82,-15.87 -316.82,-254.19 0,-147.21 128,-211.67 255.81,-211.67 79.12,0 168.39,20.73 224.51,82.35l-114.38 117.31z"/>
    <path class="fil1" d="M3290.49 3825.19l180.37 0 0 85 2.27 0c25,-49.2 86.29,-100.65 177.52,-100.65 85.39,0 155.76,35.97 188.09,112.05 43.41,-79.72 102.59,-112.05 192.16,-112.05 165.35,0 215.57,119.96 215.57,272.29l0 369.89 -187.48 0 0 -364.82c0,-57.76 -21.77,-106.97 -82.98,-106.97 -86.02,0 -113.58,62.83 -113.58,140.33l0 331.46 -188 0 0 -331.46c0,-46.16 2.84,-140.33 -83.56,-140.33 -97.31,0 -112.27,78.09 -112.27,159.84l0 311.95 -188.11 0 0 -626.53z"/>
    <path class="fil1" d="M4691.62 4372.6l-2.46 0c-41.27,67.72 -116.32,94.76 -192.79,94.76 -113.56,0 -216.34,-67.3 -216.34,-193.58 0,-216.77 255.4,-220.44 411.59,-220.44 0,-68.32 -55.11,-112.44 -119.99,-112.44 -61.2,0 -112.65,28.45 -152.93,74.62l-100.03 -105.33c69.14,-67.31 169.08,-100.65 267.9,-100.65 218.91,0 277.79,114.9 277.79,323.72l0 318.46 -172.74 0 0 -79.12zm-46.17 -195.61l0 0c-57.85,0 -185.05,5.28 -185.05,90.48 0,46.16 47.48,68.32 88.86,68.32 73.41,0 142.36,-39.66 142.36,-117.72l0 -41.08 -46.17 0z"/>
   </g>
   <path class="fil2" d="M2482.89 2240.28l748.49 446.71 56.32 -33.58 0 -68.72 -644.2 -370.97 241.35 -143.8 634.93 376.77 0 344.41 -288.4 171.3 -1382.03 -824.68 -403.95 242.14 0 479.01 402.84 239.68 458.77 -273.27 -114.04 -67.77 -344.73 204.89 -288.49 -171.3 0 -344.41 288.49 -170.65 1383.14 822.51 403.79 -239.68 0 -479.64 -634.77 -378.31 230.98 -136.46 633.85 376.76 0 755.37 -633.85 377.05 -692.77 -410.67 -690.37 410.67 -633.53 -377.05 0 -754.45 689.29 -416.16 1.96 -835.97 633.88 -377.4 633.54 377.4 0 755.05 -230.69 136.81 0 -754.49 -402.85 -239.67 -403.19 239.67 0 908.64 114.51 66.89 0 -899.18 288.68 -179.53 287.74 171.59 0 754.16 -231.13 137.06 0 -752.9 -56.61 -34.5 -58.94 37.84 1.99 902.83zm-697.37 341.98l0 0 0 73.89 62.72 37.85 62.48 -37.85 0 -73.89 -62.48 -37.56 -62.72 37.56z"/>
  </g>
 </g>
</svg>
