<?xml version="1.0" encoding="UTF-8"?>
<!DOCTYPE svg PUBLIC "-//W3C//DTD SVG 1.1//EN" "http://www.w3.org/Graphics/SVG/1.1/DTD/svg11.dtd">
<!-- Creator: CorelDRAW 2021.5 -->
<svg xmlns="http://www.w3.org/2000/svg" xml:space="preserve" width="25.3998mm" height="25.3998mm" version="1.1" style="shape-rendering:geometricPrecision; text-rendering:geometricPrecision; image-rendering:optimizeQuality; fill-rule:evenodd; clip-rule:evenodd"
viewBox="0 0 2539.98 2539.98"
 xmlns:xlink="http://www.w3.org/1999/xlink"
 xmlns:xodm="http://www.corel.com/coreldraw/odm/2003">
 <defs>
  <style type="text/css">
   <![CDATA[
    .fil0 {fill:none}
    .fil2 {fill:#08A1DF;fill-rule:nonzero}
    .fil1 {fill:#0A1B70;fill-rule:nonzero}
   ]]>
  </style>
 </defs>
 <g id="_23Layer_x0020_1">
  <metadata id="CorelCorpID_0Corel-Layer"/>
  <rect class="fil0" x="-0.01" y="-0" width="2539.99" height="2539.99"/>
  <g id="_1927711888400">
   <g>
    <polygon class="fil1" points="103.54,1771.16 201.35,1771.16 201.35,2136.09 367.08,2136.09 367.08,2229.36 103.54,2229.36 "/>
    <path class="fil1" d="M672.97 2175.16c-30.21,39.3 -79.9,62.05 -128.78,62.05 -94.2,0 -169.41,-64.69 -169.41,-164.9 0,-100.22 75.21,-165.22 169.41,-165.22 87.86,0 143.01,65 143.01,165.22l0 30.1 -218.23 0c7.46,37.05 34.6,60.93 70.92,60.93 30.72,0 51.44,-16.03 67.16,-38.28l65.92 50.1zm-79.9 -138.77l0 0c0.81,-32.36 -23.78,-59.5 -57.61,-59.5 -41.48,0 -64.14,29.29 -66.49,59.5l124.1 0z"/>
    <path class="fil1" d="M1033.31 2229.36l-86.54 0 0 -41.53 -1.49 0c-14.24,22.65 -50.55,49.38 -93.32,49.38 -90.63,0 -150.11,-67.25 -150.11,-162.46 0,-87.46 52.76,-167.66 139.2,-167.66 38.98,0 75.51,11.03 96.73,41.33l1.44 0 0 -177.26 94.09 0 0 458.2zm-161.96 -236.76l0 0c-47.14,0 -75.21,32.16 -75.21,79.71 0,46.94 28.07,79.39 75.21,79.39 47.05,0 75.42,-32.45 75.42,-79.39 0,-47.55 -28.37,-79.71 -75.42,-79.71z"/>
    <path class="fil1" d="M1347.21 2175.16c-30.11,39.3 -79.7,62.05 -128.68,62.05 -94.25,0 -169.61,-64.69 -169.61,-164.9 0,-100.22 75.36,-165.22 169.61,-165.22 87.76,0 143.12,65 143.12,165.22l0 30.1 -218.54 0c7.6,37.05 34.7,60.93 70.92,60.93 30.82,0 51.44,-16.03 67.26,-38.28l65.92 50.1zm-79.7 -138.77l0 0c0.51,-32.36 -23.88,-59.5 -57.6,-59.5 -41.7,0 -64.15,29.29 -66.8,59.5l124.4 0z"/>
    <path class="fil1" d="M1560.24 2007.29c-13.93,-17.34 -32.4,-26.43 -54.86,-26.43 -15.6,0 -34.53,6.95 -34.53,25.83 0,46.53 158.78,7.15 158.78,126.85 0,80.41 -75.36,103.67 -140.47,103.67 -42.86,0 -90.01,-11.01 -120.12,-42.75l57.25 -65.41c17.67,22.23 38.33,34.29 66.55,34.29 21.38,0 42.75,-5.72 42.75,-22.46 0,-50.72 -158.99,-7.96 -158.99,-127.56 0,-73.88 64.24,-106.23 128.37,-106.23 39.71,0 84.51,10.41 112.67,41.33l-57.4 58.87z"/>
    <path class="fil1" d="M1646.62 1914.95l90.51 0 0 42.65 1.14 0c12.55,-24.69 43.31,-50.51 89.09,-50.51 42.85,0 78.17,18.06 94.39,56.24 21.78,-40.01 51.48,-56.24 96.43,-56.24 82.98,0 108.18,60.2 108.18,136.65l0 185.62 -94.08 0 0 -183.08c0,-28.98 -10.93,-53.68 -41.65,-53.68 -43.16,0 -56.99,31.53 -56.99,70.43l0 166.33 -94.35 0 0 -166.33c0,-23.17 1.43,-70.43 -41.93,-70.43 -48.84,0 -56.34,39.19 -56.34,80.21l0 156.55 -94.4 0 0 -314.41z"/>
    <path class="fil1" d="M2349.75 2189.66l-1.23 0c-20.71,33.98 -58.37,47.55 -96.75,47.55 -56.99,0 -108.57,-33.77 -108.57,-97.14 0,-108.79 128.17,-110.63 206.55,-110.63 0,-34.28 -27.65,-56.42 -60.21,-56.42 -30.72,0 -56.53,14.27 -76.75,37.44l-50.19 -52.86c34.69,-33.77 84.84,-50.51 134.44,-50.51 109.85,0 139.4,57.66 139.4,162.46l0 159.81 -86.69 0 0 -39.7zm-23.17 -98.17l0 0c-29.03,0 -92.86,2.65 -92.86,45.41 0,23.16 23.83,34.28 44.59,34.28 36.84,0 71.44,-19.9 71.44,-59.07l0 -20.62 -23.17 0z"/>
   </g>
   <path class="fil2" d="M1241.33 1119.58l375.62 224.18 28.27 -16.85 0 -34.49 -323.28 -186.16 121.11 -72.17 318.63 189.08 0 172.83 -144.73 85.97 -693.55 -413.85 -202.72 121.51 0 240.38 202.17 120.28 230.22 -137.13 -57.23 -34.01 -172.99 102.82 -144.78 -85.97 0 -172.83 144.78 -85.64 694.1 412.76 202.64 -120.28 0 -240.7 -318.55 -189.85 115.91 -68.48 318.09 189.08 0 379.07 -318.09 189.21 -347.65 -206.08 -346.45 206.08 -317.93 -189.21 0 -378.61 345.91 -208.84 0.98 -419.52 318.11 -189.4 317.93 189.4 0 378.91 -115.77 68.65 0 -378.62 -202.16 -120.28 -202.34 120.28 0 455.98 57.46 33.57 0 -451.24 144.88 -90.1 144.39 86.11 0 378.47 -115.99 68.78 0 -377.83 -28.4 -17.32 -29.58 18.99 0.99 453.07zm-349.96 171.62l0 0 0 37.08 31.48 19 31.35 -19 0 -37.08 -31.35 -18.85 -31.48 18.85z"/>
  </g>
 </g>
</svg>
